<mxfile host="app.diagrams.net" modified="2022-07-16T11:07:10.688Z" agent="5.0 (Macintosh; Intel Mac OS X 10_15_7) AppleWebKit/537.36 (KHTML, like Gecko) Chrome/103.0.5060.114 Safari/537.36 Edg/103.0.1264.51" etag="LjOkMelI-AqgemKU27gJ" version="20.1.1" type="github">
  <diagram id="Rto-bA5qnEyNDUP_jZ5s" name="Page-1">
    <mxGraphModel dx="2066" dy="847" grid="1" gridSize="10" guides="1" tooltips="1" connect="1" arrows="1" fold="1" page="1" pageScale="1" pageWidth="827" pageHeight="1169" math="0" shadow="0">
      <root>
        <mxCell id="0" />
        <mxCell id="1" parent="0" />
        <mxCell id="kvzIHJ6qC3-nkWgV4DxB-3" style="edgeStyle=orthogonalEdgeStyle;rounded=0;orthogonalLoop=1;jettySize=auto;html=1;" edge="1" parent="1" source="kvzIHJ6qC3-nkWgV4DxB-1" target="kvzIHJ6qC3-nkWgV4DxB-2">
          <mxGeometry relative="1" as="geometry" />
        </mxCell>
        <mxCell id="kvzIHJ6qC3-nkWgV4DxB-1" value="Order" style="rounded=0;whiteSpace=wrap;html=1;" vertex="1" parent="1">
          <mxGeometry x="80" y="130" width="120" height="60" as="geometry" />
        </mxCell>
        <mxCell id="kvzIHJ6qC3-nkWgV4DxB-6" value="" style="edgeStyle=orthogonalEdgeStyle;rounded=0;orthogonalLoop=1;jettySize=auto;html=1;" edge="1" parent="1" source="kvzIHJ6qC3-nkWgV4DxB-2" target="kvzIHJ6qC3-nkWgV4DxB-5">
          <mxGeometry relative="1" as="geometry" />
        </mxCell>
        <mxCell id="kvzIHJ6qC3-nkWgV4DxB-2" value="Receiver" style="rounded=1;whiteSpace=wrap;html=1;" vertex="1" parent="1">
          <mxGeometry x="300" y="130" width="120" height="60" as="geometry" />
        </mxCell>
        <mxCell id="kvzIHJ6qC3-nkWgV4DxB-8" value="" style="edgeStyle=orthogonalEdgeStyle;rounded=0;orthogonalLoop=1;jettySize=auto;html=1;" edge="1" parent="1" source="kvzIHJ6qC3-nkWgV4DxB-5" target="kvzIHJ6qC3-nkWgV4DxB-7">
          <mxGeometry relative="1" as="geometry" />
        </mxCell>
        <mxCell id="kvzIHJ6qC3-nkWgV4DxB-10" value="" style="edgeStyle=orthogonalEdgeStyle;rounded=0;orthogonalLoop=1;jettySize=auto;html=1;" edge="1" parent="1" source="kvzIHJ6qC3-nkWgV4DxB-5" target="kvzIHJ6qC3-nkWgV4DxB-9">
          <mxGeometry relative="1" as="geometry" />
        </mxCell>
        <mxCell id="kvzIHJ6qC3-nkWgV4DxB-5" value="newUser" style="rhombus;whiteSpace=wrap;html=1;rounded=1;" vertex="1" parent="1">
          <mxGeometry x="320" y="260" width="80" height="80" as="geometry" />
        </mxCell>
        <mxCell id="kvzIHJ6qC3-nkWgV4DxB-7" value="" style="whiteSpace=wrap;html=1;rounded=1;" vertex="1" parent="1">
          <mxGeometry x="460" y="270" width="120" height="60" as="geometry" />
        </mxCell>
        <mxCell id="kvzIHJ6qC3-nkWgV4DxB-9" value="" style="whiteSpace=wrap;html=1;rounded=1;" vertex="1" parent="1">
          <mxGeometry x="300" y="430" width="120" height="60" as="geometry" />
        </mxCell>
      </root>
    </mxGraphModel>
  </diagram>
</mxfile>
